# xmcd CD database file
#
# Track frame offsets:
#	150
#	10115
#	25795
#	39753
#	51273
#	62823
#	78285
#	93109
#	103756
#	114712
#
# Disc length: 1686 seconds
#
# Revision: 0
# Processed by: cddbd v1.5.2PL0 Copyright (c) Steve Scherf et al.
# Submitted via: CDex 1.51
#
DISCID=6f06940a
DTITLE=Kenny Rogers and the First Edition - Songs Of Love And Pain
DYEAR=1900
DGENRE=Country
TTITLE0=New Design
TTITLE1=Tulsa Turnaround
TTITLE2=Molly
TTITLE3=Poem For My Little Lady
TTITLE4=Me and Bobby McGee
TTITLE5=My Washington Woman
TTITLE6=Church Without A Name
TTITLE7=Last Few Threads Of Love
TTITLE8=Always Leavin', Always Gone
TTITLE9=I Just Want To Give My Love To You
EXTD=
EXTT0=
EXTT1=
EXTT2=
EXTT3=
EXTT4=
EXTT5=
EXTT6=
EXTT7=
EXTT8=
EXTT9=
PLAYORDER=
